<svg id="Layer_1" data-name="Layer 1" xmlns="http://www.w3.org/2000/svg" viewBox="0 0 1500 984.33"><defs><style>.cls-1{fill:#bad6ff;}</style></defs><title>bluebkgr</title><path class="cls-1" d="M12313.73,4301.5a122.46,122.46,0,0,0-142-112.77,122.45,122.45,0,0,0-232.32,31.77,122.68,122.68,0,0,0-107,11.79,113.27,113.27,0,0,0-202.83,36.09A160.72,160.72,0,0,0,11467.9,4242a160.53,160.53,0,0,0-256.71-5.32,161.24,161.24,0,0,0-92.52,2.17,160.54,160.54,0,0,0-304.47,62.62h-.2v800h1500v-800Z" transform="translate(-10814 -4117.17)"/></svg>