<svg id="Layer_1" data-name="Layer 1" xmlns="http://www.w3.org/2000/svg" viewBox="0 0 1500 984.33"><defs><style>.cls-1{fill:#a9c9b1;}.cls-2{fill:#fff;}</style></defs><title>greenbkgrsuns</title><path class="cls-1" d="M12313.73,4301.5a122.46,122.46,0,0,0-142-112.77,122.45,122.45,0,0,0-232.32,31.77,122.68,122.68,0,0,0-107,11.79,113.27,113.27,0,0,0-202.83,36.09A160.72,160.72,0,0,0,11467.9,4242a160.53,160.53,0,0,0-256.71-5.32,161.24,161.24,0,0,0-92.52,2.17,160.54,160.54,0,0,0-304.47,62.62h-.2v800h1500v-800Z" transform="translate(-10814 -4117.17)"/><path class="cls-2" d="M12141.79,4519.81c-1.53-5.3-3.24-10.57-5.16-15.75a3,3,0,0,0-5.79,1.44c.63,4.8,1.53,9.54,2.41,14.3s1.29,9.71,4.78,13.16a3.06,3.06,0,0,0,5.08-1.26C12144.4,4527.58,12143,4523.84,12141.79,4519.81Z" transform="translate(-10814 -4117.17)"/><path class="cls-2" d="M12163.66,4607.92c-1.53-5.3-3.25-10.57-5.17-15.74a3,3,0,0,0-5.79,1.43c.63,4.81,1.53,9.54,2.42,14.3s1.29,9.72,4.77,13.17a3.06,3.06,0,0,0,5.08-1.26C12166.27,4615.7,12164.82,4612,12163.66,4607.92Z" transform="translate(-10814 -4117.17)"/><path class="cls-2" d="M12173.36,4527.84c2.67-4.83,5.19-9.77,7.49-14.78a3,3,0,0,0-5.11-3.08c-2.95,3.84-5.67,7.82-8.41,11.82s-6,7.78-5.93,12.68a3.06,3.06,0,0,0,4.49,2.7C12169.71,4535.18,12171.33,4531.52,12173.36,4527.84Z" transform="translate(-10814 -4117.17)"/><path class="cls-2" d="M12126.52,4605.61c2.67-4.83,5.18-9.77,7.48-14.79a3,3,0,0,0-5.11-3.08c-2.95,3.85-5.66,7.83-8.4,11.82s-6,7.79-5.93,12.69a3.06,3.06,0,0,0,4.48,2.7C12122.87,4613,12124.49,4609.28,12126.52,4605.61Z" transform="translate(-10814 -4117.17)"/><path class="cls-2" d="M12190,4555.85c5.3-1.53,10.57-3.25,15.75-5.17a3,3,0,0,0-1.44-5.79c-4.8.64-9.54,1.53-14.3,2.42s-9.72,1.29-13.16,4.77a3.06,3.06,0,0,0,1.26,5.08C12182.24,4558.46,12186,4557,12190,4555.85Z" transform="translate(-10814 -4117.17)"/><path class="cls-2" d="M12101.9,4577.71c5.3-1.53,10.57-3.24,15.74-5.16a3,3,0,0,0-1.43-5.79c-4.81.63-9.54,1.53-14.3,2.41s-9.72,1.3-13.17,4.78a3.07,3.07,0,0,0,1.26,5.08C12094.12,4580.32,12097.86,4578.87,12101.9,4577.71Z" transform="translate(-10814 -4117.17)"/><path class="cls-2" d="M12182,4587.42c4.83,2.67,9.77,5.18,14.78,7.48a3,3,0,0,0,3.08-5.11c-3.84-2.94-7.83-5.66-11.82-8.4s-7.78-6-12.68-5.93a3.06,3.06,0,0,0-2.7,4.48C12174.64,4583.77,12178.3,4585.39,12182,4587.42Z" transform="translate(-10814 -4117.17)"/><path class="cls-2" d="M12104.21,4540.58c4.83,2.66,9.77,5.18,14.79,7.48a3,3,0,0,0,3.08-5.11c-3.85-2.95-7.83-5.67-11.83-8.41s-7.78-5.95-12.68-5.93a3.07,3.07,0,0,0-2.7,4.49C12096.87,4536.93,12100.54,4538.54,12104.21,4540.58Z" transform="translate(-10814 -4117.17)"/><path class="cls-2" d="M11505.51,4650c-.07-1.88-.2-3.76-.41-5.63a1,1,0,0,0-2,0c-.19,1.64-.28,3.28-.38,4.92s-.36,3.32.5,4.74a1,1,0,0,0,1.78,0C11505.74,4652.82,11505.57,4651.46,11505.51,4650Z" transform="translate(-10814 -4117.17)"/><path class="cls-2" d="M11505.51,4680.93c-.07-1.88-.2-3.76-.41-5.63a1,1,0,0,0-2,0c-.19,1.64-.28,3.28-.38,4.92s-.36,3.32.5,4.74a1,1,0,0,0,1.78,0C11505.74,4683.71,11505.57,4682.35,11505.51,4680.93Z" transform="translate(-10814 -4117.17)"/><path class="cls-2" d="M11515.28,4655.28q1.92-2.07,3.68-4.27a1,1,0,0,0-1.43-1.44c-1.29,1-2.51,2.12-3.75,3.22s-2.6,2.08-3,3.7a1,1,0,0,0,1.26,1.26C11513.47,4657.4,11514.31,4656.32,11515.28,4655.28Z" transform="translate(-10814 -4117.17)"/><path class="cls-2" d="M11493.44,4677.12q1.92-2.07,3.68-4.27a1,1,0,0,0-1.43-1.44c-1.29,1-2.51,2.12-3.75,3.22s-2.6,2.08-3,3.7a1,1,0,0,0,1.26,1.26C11491.63,4679.24,11492.47,4678.16,11493.44,4677.12Z" transform="translate(-10814 -4117.17)"/><path class="cls-2" d="M11518.48,4665.89q2.82-.11,5.63-.42a1,1,0,0,0,0-2c-1.64-.18-3.28-.27-4.92-.37s-3.32-.37-4.74.5a1,1,0,0,0,0,1.78C11515.7,4666.11,11517.06,4665.94,11518.48,4665.89Z" transform="translate(-10814 -4117.17)"/><path class="cls-2" d="M11487.59,4665.89q2.82-.11,5.63-.42a1,1,0,0,0,0-2c-1.64-.18-3.28-.27-4.92-.37s-3.32-.37-4.74.5a1,1,0,0,0,0,1.78C11484.81,4666.11,11486.17,4665.94,11487.59,4665.89Z" transform="translate(-10814 -4117.17)"/><path class="cls-2" d="M11513.24,4675.66c1.38,1.27,2.8,2.51,4.27,3.68a1,1,0,0,0,1.44-1.44c-1-1.28-2.12-2.51-3.22-3.74s-2.08-2.6-3.7-3a1,1,0,0,0-1.26,1.26C11511.12,4673.85,11512.2,4674.68,11513.24,4675.66Z" transform="translate(-10814 -4117.17)"/><path class="cls-2" d="M11491.4,4653.82c1.38,1.27,2.8,2.51,4.27,3.68a1,1,0,0,0,1.44-1.44c-1-1.29-2.12-2.51-3.22-3.74s-2.08-2.61-3.7-3a1,1,0,0,0-1.26,1.26C11489.28,4652,11490.36,4652.84,11491.4,4653.82Z" transform="translate(-10814 -4117.17)"/><path class="cls-2" d="M11562.09,4435.2c1.4-3.79,2.68-7.63,3.8-11.51a2.19,2.19,0,0,0-4-1.67c-1.71,3.1-3.24,6.28-4.78,9.47s-3.45,6.27-2.9,9.81a2.23,2.23,0,0,0,3.53,1.46C11560.25,4440.9,11561,4438.07,11562.09,4435.2Z" transform="translate(-10814 -4117.17)"/><path class="cls-2" d="M11536.72,4496.53c1.4-3.78,2.68-7.63,3.8-11.51a2.19,2.19,0,0,0-4-1.66c-1.71,3.1-3.24,6.27-4.78,9.46s-3.46,6.28-2.9,9.82a2.23,2.23,0,0,0,3.53,1.46C11534.88,4502.24,11535.65,4499.41,11536.72,4496.53Z" transform="translate(-10814 -4117.17)"/><path class="cls-2" d="M11577.18,4453.62c3.67-1.68,7.29-3.5,10.82-5.45a2.18,2.18,0,0,0-1.67-4c-3.4,1-6.73,2.15-10.07,3.31s-6.89,2-9,4.89a2.24,2.24,0,0,0,1.47,3.53C11571.85,4456.36,11574.39,4454.9,11577.18,4453.62Z" transform="translate(-10814 -4117.17)"/><path class="cls-2" d="M11515.87,4479.05c3.67-1.68,7.29-3.5,10.82-5.45a2.18,2.18,0,0,0-1.67-4c-3.4,1-6.73,2.15-10.07,3.31s-6.88,2-9,4.89a2.24,2.24,0,0,0,1.47,3.53C11510.54,4481.79,11513.08,4480.33,11515.87,4479.05Z" transform="translate(-10814 -4117.17)"/><path class="cls-2" d="M11574.82,4477.32q5.69,2.11,11.51,3.8a2.18,2.18,0,0,0,1.67-4c-3.1-1.71-6.28-3.24-9.46-4.79s-6.28-3.45-9.82-2.9a2.24,2.24,0,0,0-1.46,3.54C11569.12,4475.49,11572,4476.26,11574.82,4477.32Z" transform="translate(-10814 -4117.17)"/><path class="cls-2" d="M11513.49,4452c3.78,1.41,7.63,2.68,11.51,3.8a2.18,2.18,0,0,0,1.66-4c-3.1-1.71-6.27-3.24-9.46-4.79s-6.28-3.45-9.82-2.9a2.24,2.24,0,0,0-1.46,3.54C11507.78,4450.12,11510.61,4450.89,11513.49,4452Z" transform="translate(-10814 -4117.17)"/><path class="cls-2" d="M11556.4,4492.42c1.68,3.66,3.5,7.29,5.45,10.82a2.18,2.18,0,0,0,4-1.68c-1-3.4-2.15-6.72-3.31-10.07s-2-6.88-4.89-9a2.23,2.23,0,0,0-3.53,1.46C11553.66,4487.08,11555.12,4489.63,11556.4,4492.42Z" transform="translate(-10814 -4117.17)"/><path class="cls-2" d="M11531,4431.11c1.68,3.66,3.5,7.29,5.45,10.82a2.18,2.18,0,0,0,4-1.68c-1-3.4-2.15-6.72-3.31-10.07s-2-6.88-4.89-9a2.24,2.24,0,0,0-3.53,1.46C11528.23,4425.77,11529.69,4428.32,11531,4431.11Z" transform="translate(-10814 -4117.17)"/><path class="cls-2" d="M12222.63,4981.7c1.4-3.78,2.68-7.63,3.79-11.51a2.18,2.18,0,0,0-4-1.66c-1.71,3.1-3.24,6.27-4.78,9.46s-3.46,6.28-2.9,9.82a2.23,2.23,0,0,0,3.53,1.46C12220.79,4987.41,12221.56,4984.58,12222.63,4981.7Z" transform="translate(-10814 -4117.17)"/><path class="cls-2" d="M12197.26,5043c1.4-3.79,2.68-7.63,3.79-11.51a2.18,2.18,0,0,0-4-1.67c-1.71,3.1-3.24,6.28-4.78,9.46s-3.46,6.28-2.9,9.82a2.23,2.23,0,0,0,3.53,1.46C12195.42,5048.74,12196.19,5045.91,12197.26,5043Z" transform="translate(-10814 -4117.17)"/><path class="cls-2" d="M12237.72,5000.13c3.67-1.69,7.29-3.5,10.82-5.45a2.18,2.18,0,0,0-1.67-4c-3.4,1-6.73,2.14-10.07,3.3s-6.89,2-9,4.89a2.24,2.24,0,0,0,1.47,3.54C12232.39,5002.86,12234.93,5001.41,12237.72,5000.13Z" transform="translate(-10814 -4117.17)"/><path class="cls-2" d="M12176.41,5025.56c3.67-1.69,7.29-3.5,10.82-5.45a2.18,2.18,0,0,0-1.67-4c-3.4,1-6.73,2.14-10.07,3.3s-6.89,2-9,4.89a2.24,2.24,0,0,0,1.47,3.54C12171.08,5028.29,12173.62,5026.84,12176.41,5025.56Z" transform="translate(-10814 -4117.17)"/><path class="cls-2" d="M12235.36,5023.83c3.79,1.4,7.63,2.68,11.51,3.79a2.18,2.18,0,0,0,1.67-4c-3.1-1.71-6.28-3.24-9.47-4.78s-6.27-3.46-9.81-2.9a2.24,2.24,0,0,0-1.47,3.53C12229.66,5022,12232.48,5022.76,12235.36,5023.83Z" transform="translate(-10814 -4117.17)"/><path class="cls-2" d="M12174,4998.46c3.78,1.4,7.63,2.68,11.5,3.79a2.18,2.18,0,0,0,1.67-4c-3.1-1.71-6.27-3.24-9.46-4.78s-6.28-3.46-9.82-2.9a2.23,2.23,0,0,0-1.46,3.53C12168.32,4996.62,12171.15,4997.39,12174,4998.46Z" transform="translate(-10814 -4117.17)"/><path class="cls-2" d="M12216.94,5038.92c1.68,3.67,3.5,7.29,5.45,10.82a2.18,2.18,0,0,0,4-1.67c-1-3.4-2.15-6.73-3.31-10.07s-2-6.89-4.89-9a2.24,2.24,0,0,0-3.54,1.47C12214.2,5033.59,12215.66,5036.13,12216.94,5038.92Z" transform="translate(-10814 -4117.17)"/><path class="cls-2" d="M12191.51,4977.61c1.68,3.67,3.5,7.29,5.45,10.82a2.18,2.18,0,0,0,4-1.67c-1-3.4-2.15-6.73-3.31-10.07s-2-6.89-4.89-9a2.24,2.24,0,0,0-3.54,1.47C12188.77,4972.28,12190.23,4974.82,12191.51,4977.61Z" transform="translate(-10814 -4117.17)"/><path class="cls-2" d="M11283.17,4877.46q2.11-4.62,3.8-9.37c.78-2.21-2.67-3.37-4-1.36-1.71,2.53-3.24,5.12-4.79,7.71s-3.45,5.11-2.9,8c.26,1.35,2.18,2,3.54,1.19C11281.34,4882.11,11282.11,4879.81,11283.17,4877.46Z" transform="translate(-10814 -4117.17)"/><path class="cls-2" d="M11257.8,4927.42q2.11-4.62,3.8-9.37c.78-2.21-2.67-3.37-4-1.36-1.71,2.53-3.24,5.11-4.79,7.71s-3.45,5.11-2.9,8c.26,1.35,2.18,2,3.54,1.19C11256,4932.07,11256.74,4929.77,11257.8,4927.42Z" transform="translate(-10814 -4117.17)"/><path class="cls-2" d="M11298.26,4892.47c3.67-1.37,7.29-2.85,10.83-4.44,2.47-1.11,1-3.92-1.68-3.28-3.4.8-6.73,1.75-10.07,2.69s-6.88,1.63-9,4c-1,1.1-.2,2.67,1.46,2.88C11292.93,4894.7,11295.48,4893.52,11298.26,4892.47Z" transform="translate(-10814 -4117.17)"/><path class="cls-2" d="M11237,4913.19c3.66-1.38,7.29-2.86,10.82-4.44,2.47-1.12,1-3.93-1.68-3.29-3.4.8-6.73,1.75-10.07,2.7s-6.88,1.62-9,4c-1,1.11-.2,2.67,1.46,2.88C11231.62,4915.41,11234.17,4914.23,11237,4913.19Z" transform="translate(-10814 -4117.17)"/><path class="cls-2" d="M11295.91,4911.78c3.78,1.14,7.63,2.18,11.5,3.09,2.72.64,4.14-2.17,1.67-3.29-3.1-1.39-6.28-2.63-9.46-3.89s-6.28-2.82-9.82-2.36c-1.66.21-2.45,1.77-1.46,2.88C11290.2,4910.28,11293,4910.91,11295.91,4911.78Z" transform="translate(-10814 -4117.17)"/><path class="cls-2" d="M11234.57,4891.11c3.79,1.15,7.63,2.19,11.51,3.09,2.71.64,4.14-2.17,1.67-3.28-3.1-1.39-6.28-2.64-9.47-3.9s-6.27-2.81-9.81-2.36c-1.66.21-2.46,1.78-1.47,2.88C11228.87,4889.62,11231.7,4890.24,11234.57,4891.11Z" transform="translate(-10814 -4117.17)"/><path class="cls-2" d="M11277.48,4924.07c1.68,3,3.5,5.94,5.45,8.81,1.37,2,4.82.85,4-1.36-1-2.77-2.15-5.48-3.31-8.2s-2-5.61-4.89-7.33c-1.35-.8-3.27-.16-3.53,1.2C11274.74,4919.73,11276.2,4921.8,11277.48,4924.07Z" transform="translate(-10814 -4117.17)"/><path class="cls-2" d="M11252.05,4874.13c1.68,3,3.5,5.94,5.45,8.82,1.37,2,4.82.84,4-1.37-1-2.77-2.15-5.48-3.31-8.2s-2-5.61-4.89-7.33c-1.35-.8-3.27-.15-3.53,1.2C11249.31,4869.79,11250.77,4871.86,11252.05,4874.13Z" transform="translate(-10814 -4117.17)"/><path class="cls-2" d="M10969.65,4874.54c2.3-5.06,4.4-10.2,6.23-15.38,1.28-3.63-4.38-5.54-6.62-2.23-2.81,4.14-5.32,8.39-7.85,12.65s-5.67,8.39-4.76,13.13c.42,2.21,3.58,3.28,5.8,1.95C10966.63,4882.17,10967.9,4878.39,10969.65,4874.54Z" transform="translate(-10814 -4117.17)"/><path class="cls-2" d="M10928,4956.55c2.3-5.06,4.4-10.2,6.23-15.39,1.28-3.62-4.38-5.53-6.62-2.23-2.8,4.15-5.31,8.4-7.85,12.66s-5.67,8.39-4.76,13.12c.42,2.22,3.58,3.28,5.8,2C10925,4964.18,10926.25,4960.4,10928,4956.55Z" transform="translate(-10814 -4117.17)"/><path class="cls-2" d="M10994.42,4899.18c6-2.25,12-4.68,17.77-7.29,4-1.83,1.7-6.44-2.75-5.39-5.58,1.31-11.05,2.87-16.54,4.42s-11.29,2.67-14.76,6.54c-1.62,1.82-.32,4.38,2.41,4.73C10985.67,4902.84,10989.84,4900.89,10994.42,4899.18Z" transform="translate(-10814 -4117.17)"/><path class="cls-2" d="M10893.78,4933.18c6-2.25,12-4.68,17.76-7.29,4.06-1.83,1.71-6.44-2.74-5.39-5.59,1.32-11,2.87-16.54,4.43s-11.3,2.66-14.76,6.54c-1.63,1.81-.32,4.38,2.4,4.72C10885,4936.84,10889.2,4934.89,10893.78,4933.18Z" transform="translate(-10814 -4117.17)"/><path class="cls-2" d="M10990.55,4930.87c6.21,1.87,12.53,3.58,18.89,5.07,4.46,1.05,6.8-3.56,2.74-5.39-5.09-2.28-10.31-4.33-15.54-6.39s-10.3-4.62-16.11-3.88c-2.72.34-4,2.91-2.4,4.73C10981.19,4928.41,10985.83,4929.44,10990.55,4930.87Z" transform="translate(-10814 -4117.17)"/><path class="cls-2" d="M10889.87,4897c6.21,1.87,12.52,3.58,18.89,5.07,4.45,1,6.79-3.56,2.73-5.39-5.09-2.29-10.3-4.33-15.53-6.39s-10.3-4.62-16.12-3.88c-2.72.34-4,2.91-2.4,4.72C10880.5,4894.49,10885.14,4895.52,10889.87,4897Z" transform="translate(-10814 -4117.17)"/><path class="cls-2" d="M10960.3,4951.05c2.77,4.9,5.75,9.75,9,14.47,2.25,3.3,7.91,1.39,6.62-2.24-1.61-4.55-3.53-9-5.43-13.47s-3.28-9.2-8-12c-2.23-1.33-5.38-.26-5.8,2C10955.81,4943.92,10958.2,4947.32,10960.3,4951.05Z" transform="translate(-10814 -4117.17)"/><path class="cls-2" d="M10918.56,4869.07c2.76,4.91,5.74,9.75,9,14.47,2.24,3.3,7.9,1.39,6.61-2.24-1.61-4.54-3.52-9-5.43-13.46s-3.27-9.21-8-12c-2.22-1.32-5.37-.26-5.8,2C10914.07,4861.94,10916.46,4865.34,10918.56,4869.07Z" transform="translate(-10814 -4117.17)"/><path class="cls-2" d="M11933.81,4826.79c2.67-4.83,5.18-9.77,7.48-14.79a3,3,0,0,0-5.12-3.07c-2.94,3.84-5.66,7.83-8.4,11.82s-6,7.79-5.92,12.69a3.06,3.06,0,0,0,4.48,2.7C11930.16,4834.14,11931.78,4830.47,11933.81,4826.79Z" transform="translate(-10814 -4117.17)"/><path class="cls-2" d="M11887,4904.58c2.67-4.83,5.18-9.78,7.48-14.79a3,3,0,0,0-5.11-3.08c-3,3.85-5.66,7.83-8.4,11.83s-5.95,7.78-5.93,12.68a3.07,3.07,0,0,0,4.49,2.7C11883.35,4911.92,11885,4908.25,11887,4904.58Z" transform="translate(-10814 -4117.17)"/><path class="cls-2" d="M11950.46,4854.79c5.31-1.53,10.58-3.25,15.75-5.17a3,3,0,0,0-1.44-5.79c-4.8.64-9.54,1.53-14.3,2.42s-9.71,1.3-13.16,4.78a3.06,3.06,0,0,0,1.26,5.08C11942.69,4857.4,11946.43,4856,11950.46,4854.79Z" transform="translate(-10814 -4117.17)"/><path class="cls-2" d="M11862.36,4876.69c5.3-1.53,10.57-3.25,15.74-5.17a3,3,0,0,0-1.44-5.79c-4.8.64-9.53,1.53-14.29,2.42s-9.72,1.3-13.17,4.78a3.07,3.07,0,0,0,1.27,5.08C11854.59,4879.3,11858.32,4877.85,11862.36,4876.69Z" transform="translate(-10814 -4117.17)"/><path class="cls-2" d="M11942.44,4886.37c4.84,2.67,9.78,5.18,14.79,7.48a3,3,0,0,0,3.08-5.12c-3.84-2.94-7.83-5.66-11.82-8.4s-7.79-5.95-12.69-5.92a3.06,3.06,0,0,0-2.7,4.48C11935.1,4882.72,11938.77,4884.34,11942.44,4886.37Z" transform="translate(-10814 -4117.17)"/><path class="cls-2" d="M11864.66,4839.55c4.83,2.67,9.77,5.18,14.79,7.48a3,3,0,0,0,3.08-5.11c-3.85-2.95-7.83-5.66-11.83-8.4s-7.79-6-12.69-5.93a3.06,3.06,0,0,0-2.69,4.49C11857.32,4835.91,11861,4837.52,11864.66,4839.55Z" transform="translate(-10814 -4117.17)"/><path class="cls-2" d="M11914.45,4903c1.53,5.31,3.24,10.58,5.16,15.75a3,3,0,0,0,5.8-1.44c-.64-4.8-1.54-9.54-2.43-14.3s-1.29-9.71-4.78-13.16a3.07,3.07,0,0,0-5.08,1.26C11911.83,4895.25,11913.28,4899,11914.45,4903Z" transform="translate(-10814 -4117.17)"/><path class="cls-2" d="M11892.55,4814.92c1.53,5.3,3.24,10.57,5.17,15.74a3,3,0,0,0,5.79-1.44c-.64-4.8-1.54-9.53-2.43-14.29s-1.29-9.72-4.78-13.17a3.07,3.07,0,0,0-5.08,1.27C11889.93,4807.15,11891.38,4810.89,11892.55,4814.92Z" transform="translate(-10814 -4117.17)"/><path class="cls-2" d="M11091.61,4358.27c-.2-5.51-.6-11-1.21-16.53a3,3,0,0,0-6,0c-.54,4.82-.82,9.63-1.1,14.47s-1.09,9.74,1.46,13.92a3.07,3.07,0,0,0,5.24,0C11092.27,4366.44,11091.77,4362.47,11091.61,4358.27Z" transform="translate(-10814 -4117.17)"/><path class="cls-2" d="M11091.61,4449.06c-.2-5.52-.6-11.05-1.21-16.53a3,3,0,0,0-6,0c-.54,4.81-.82,9.63-1.1,14.46s-1.09,9.74,1.46,13.93a3.07,3.07,0,0,0,5.24,0C11092.27,4457.23,11091.77,4453.25,11091.61,4449.06Z" transform="translate(-10814 -4117.17)"/><path class="cls-2" d="M11120.32,4373.67c3.76-4,7.39-8.23,10.83-12.55a3,3,0,0,0-4.22-4.22c-3.79,3-7.38,6.24-11,9.45s-7.66,6.12-8.82,10.89a3.07,3.07,0,0,0,3.71,3.7C11115,4379.92,11117.47,4376.75,11120.32,4373.67Z" transform="translate(-10814 -4117.17)"/><path class="cls-2" d="M11056.13,4437.87c3.75-4.05,7.38-8.24,10.82-12.55a3,3,0,0,0-4.22-4.22c-3.78,3-7.38,6.23-11,9.45s-7.66,6.12-8.81,10.88a3.06,3.06,0,0,0,3.7,3.7C11050.82,4444.11,11053.27,4440.94,11056.13,4437.87Z" transform="translate(-10814 -4117.17)"/><path class="cls-2" d="M11129.73,4404.86c5.52-.2,11.05-.6,16.53-1.22a3,3,0,0,0,0-6c-4.81-.55-9.63-.82-14.46-1.1s-9.74-1.09-13.93,1.46a3.07,3.07,0,0,0,0,5.24C11121.56,4405.52,11125.54,4405,11129.73,4404.86Z" transform="translate(-10814 -4117.17)"/><path class="cls-2" d="M11039,4404.86c5.51-.2,11-.6,16.52-1.22a3,3,0,0,0,0-6c-4.81-.55-9.62-.82-14.46-1.1s-9.74-1.09-13.92,1.46a3.07,3.07,0,0,0,0,5.24C11030.78,4405.52,11034.75,4405,11039,4404.86Z" transform="translate(-10814 -4117.17)"/><path class="cls-2" d="M11114.33,4433.57q6.07,5.64,12.55,10.83a3,3,0,0,0,4.22-4.22c-3-3.79-6.23-7.39-9.45-11s-6.12-7.65-10.88-8.81a3.06,3.06,0,0,0-3.7,3.7C11108.09,4428.26,11111.26,4430.71,11114.33,4433.57Z" transform="translate(-10814 -4117.17)"/><path class="cls-2" d="M11050.14,4369.37c4,3.76,8.23,7.39,12.55,10.83a3,3,0,0,0,4.22-4.22c-3-3.79-6.24-7.38-9.45-11s-6.12-7.66-10.89-8.81a3.06,3.06,0,0,0-3.7,3.7C11043.89,4364.06,11047.06,4366.52,11050.14,4369.37Z" transform="translate(-10814 -4117.17)"/><path class="cls-2" d="M11208.69,4614.9c-.15-4-.44-8.07-.89-12.08a2.19,2.19,0,0,0-4.37,0c-.39,3.52-.59,7-.8,10.57s-.79,7.12,1.07,10.18a2.25,2.25,0,0,0,3.83,0C11209.17,4620.88,11208.8,4618,11208.69,4614.9Z" transform="translate(-10814 -4117.17)"/><path class="cls-2" d="M11208.69,4681.28c-.15-4-.44-8.08-.89-12.09a2.19,2.19,0,0,0-4.37,0c-.39,3.52-.59,7-.8,10.57s-.79,7.13,1.07,10.19a2.25,2.25,0,0,0,3.83,0C11209.17,4687.25,11208.8,4684.34,11208.69,4681.28Z" transform="translate(-10814 -4117.17)"/><path class="cls-2" d="M11229.68,4626.16c2.74-3,5.39-6,7.91-9.17a2.19,2.19,0,0,0-3.09-3.09c-2.76,2.21-5.39,4.56-8,6.91s-5.6,4.47-6.44,8a2.23,2.23,0,0,0,2.71,2.7C11225.79,4630.73,11227.59,4628.41,11229.68,4626.16Z" transform="translate(-10814 -4117.17)"/><path class="cls-2" d="M11182.74,4673.09c2.75-2.95,5.4-6,7.92-9.17a2.19,2.19,0,0,0-3.09-3.09c-2.77,2.21-5.4,4.56-8,6.91s-5.6,4.48-6.44,8a2.24,2.24,0,0,0,2.7,2.71C11178.86,4677.66,11180.65,4675.34,11182.74,4673.09Z" transform="translate(-10814 -4117.17)"/><path class="cls-2" d="M11236.56,4649c4-.15,8.07-.44,12.08-.89a2.18,2.18,0,0,0,0-4.36c-3.52-.4-7-.59-10.57-.8s-7.12-.8-10.18,1.07a2.23,2.23,0,0,0,0,3.82C11230.58,4649.45,11233.49,4649.08,11236.56,4649Z" transform="translate(-10814 -4117.17)"/><path class="cls-2" d="M11170.18,4649c4-.15,8.08-.44,12.08-.89a2.18,2.18,0,0,0,0-4.36c-3.51-.4-7-.59-10.57-.8s-7.12-.8-10.18,1.07a2.24,2.24,0,0,0,0,3.82C11164.21,4649.45,11167.11,4649.08,11170.18,4649Z" transform="translate(-10814 -4117.17)"/><path class="cls-2" d="M11225.3,4670c3,2.75,6,5.4,9.17,7.92a2.19,2.19,0,0,0,3.09-3.09c-2.21-2.77-4.56-5.4-6.91-8s-4.48-5.6-8-6.44a2.23,2.23,0,0,0-2.7,2.7C11220.73,4666.07,11223.05,4667.86,11225.3,4670Z" transform="translate(-10814 -4117.17)"/><path class="cls-2" d="M11178.36,4623c3,2.74,6,5.4,9.18,7.91a2.18,2.18,0,0,0,3.08-3.08c-2.21-2.77-4.55-5.4-6.91-8.05s-4.47-5.59-7.95-6.44a2.25,2.25,0,0,0-2.71,2.71C11173.8,4619.14,11176.11,4620.93,11178.36,4623Z" transform="translate(-10814 -4117.17)"/><path class="cls-2" d="M11945.59,4329c-.32-8.61-.94-17.24-1.9-25.79a4.66,4.66,0,0,0-9.31,0c-.85,7.51-1.27,15-1.72,22.56-.43,7.37-1.69,15.2,2.29,21.73a4.78,4.78,0,0,0,8.17,0C11946.62,4341.7,11945.83,4335.49,11945.59,4329Z" transform="translate(-10814 -4117.17)"/><path class="cls-2" d="M11945.59,4470.61c-.32-8.6-.94-17.23-1.9-25.79a4.66,4.66,0,0,0-9.31,0c-.85,7.51-1.27,15-1.72,22.57-.43,7.36-1.69,15.2,2.29,21.73a4.78,4.78,0,0,0,8.17,0C11946.62,4483.36,11945.83,4477.16,11945.59,4470.61Z" transform="translate(-10814 -4117.17)"/><path class="cls-2" d="M11990.39,4353c5.86-6.32,11.52-12.85,16.89-19.58,3.76-4.72-1.87-10.35-6.58-6.59-5.91,4.72-11.52,9.73-17.17,14.75s-12,9.55-13.75,17a4.78,4.78,0,0,0,5.78,5.77C11982.1,4362.72,11985.93,4357.78,11990.39,4353Z" transform="translate(-10814 -4117.17)"/><path class="cls-2" d="M11890.22,4453.15c5.86-6.31,11.52-12.85,16.89-19.58,3.76-4.71-1.87-10.35-6.59-6.59-5.9,4.72-11.52,9.73-17.16,14.75s-12,9.55-13.75,17a4.78,4.78,0,0,0,5.77,5.78C11881.93,4462.9,11885.76,4458,11890.22,4453.15Z" transform="translate(-10814 -4117.17)"/><path class="cls-2" d="M12005.08,4401.65c8.6-.33,17.23-.94,25.79-1.9,6-.68,6-8.64,0-9.32-7.51-.84-15-1.27-22.57-1.71-7.37-.44-15.2-1.69-21.73,2.29a4.77,4.77,0,0,0,0,8.16C11992.32,4402.68,11998.53,4401.89,12005.08,4401.65Z" transform="translate(-10814 -4117.17)"/><path class="cls-2" d="M11863.41,4401.65c8.61-.33,17.23-.94,25.79-1.9,6-.68,6-8.64,0-9.32-7.51-.84-15-1.27-22.57-1.71-7.36-.44-15.2-1.69-21.73,2.29a4.77,4.77,0,0,0,0,8.16C11850.66,4402.68,11856.86,4401.89,11863.41,4401.65Z" transform="translate(-10814 -4117.17)"/><path class="cls-2" d="M11981.05,4446.44c6.31,5.86,12.85,11.53,19.58,16.9,4.71,3.76,10.34-1.88,6.58-6.59-4.71-5.91-9.73-11.52-14.74-17.17s-9.55-11.94-17-13.74a4.77,4.77,0,0,0-5.77,5.77C11971.3,4438.16,11976.24,4442,11981.05,4446.44Z" transform="translate(-10814 -4117.17)"/><path class="cls-2" d="M11880.87,4346.27c6.31,5.86,12.85,11.52,19.58,16.89,4.71,3.76,10.35-1.87,6.59-6.58-4.72-5.91-9.73-11.52-14.75-17.17s-9.55-11.94-17-13.75a4.78,4.78,0,0,0-5.77,5.78C11871.13,4338,11876.07,4341.81,11880.87,4346.27Z" transform="translate(-10814 -4117.17)"/></svg>