<?xml version="1.0" encoding="utf-8"?>
<!-- Generator: Adobe Illustrator 19.0.0, SVG Export Plug-In . SVG Version: 6.00 Build 0)  -->
<svg version="1.1" id="Layer_1" xmlns="http://www.w3.org/2000/svg" xmlns:xlink="http://www.w3.org/1999/xlink" x="0px" y="0px"
	 viewBox="200.1 146 150 150" style="enable-background:new 200.1 146 150 150;" xml:space="preserve">
<style type="text/css">
	.st0{fill:#333F48;}
</style>
<g id="Layer_1_1_">
</g>
<g id="logo_510x510">
	<g>
		<path class="st0" d="M257.6,214.1c-1.9-1.9-4.3-2.8-7-2.8c-2.9,0-5.3,0.9-7.2,2.7c-1.9,1.8-2.8,4.1-2.8,6.9c0,2.8,1,5.1,2.8,6.9
			c1.9,1.8,4.3,2.7,7.2,2.7c2.8,0,5.1-0.9,7-2.8s2.9-4.1,2.9-6.9l0,0l0,0C260.5,218.3,259.6,216,257.6,214.1z"/>
		<path class="st0" d="M275.1,146c-41.4,0-75,33.6-75,75s33.6,75,75,75s75-33.6,75-75S316.5,146,275.1,146z M234.4,234.1l-13.4-13
			v13h-3.8v-26.2h3.8v12l11.1-12h4.7l-11.4,12.5l14.2,13.8L234.4,234.1L234.4,234.1z M260.4,230.3c-2.6,2.5-5.9,3.8-9.9,3.8
			s-7.2-1.3-9.8-3.8c-2.6-2.5-3.9-5.6-3.9-9.4c0-3.8,1.3-6.9,3.9-9.4c2.6-2.5,5.9-3.8,9.8-3.8s7.2,1.3,9.9,3.8s3.9,5.6,3.9,9.4
			C264.3,224.7,262.9,227.8,260.4,230.3z M290.2,214.1c-4.1-2.6-6.6-2.8-9.3-2.8c-2.9,0-5.3,0.9-7.2,2.7c-1.9,1.8-2.8,4.1-2.8,6.9
			c0,2.8,1,5.1,2.8,6.9c1.9,1.8,4.3,2.7,7.2,2.7c2.8,0,5.3-0.2,9.3-2.8v4.1c-3.5,1.7-5.7,2.2-9.5,2.2c-3.9,0-7.2-1.3-9.8-3.8
			c-2.6-2.5-3.9-5.6-3.9-9.4c0-3.8,1.3-6.9,3.9-9.4c2.6-2.5,5.9-3.8,9.8-3.8c3.8,0,6,0.5,9.5,2.2V214.1z M315.4,234.1h-3.8v-11.4
			h-14.9v11.4H293v-26.2h3.8v11.4h14.9v-11.4h3.8V234.1z M330.9,232.2c-1.4,1.3-3.2,1.9-5.5,1.9c-2.6,0-5.1-0.9-7.2-2.5V227
			c2,2.5,4.5,3.9,7.2,3.9c1.2,0,2.2-0.3,2.9-1c0.8-0.7,1.1-1.4,1.2-2.4c0.1-1.6-1.1-3-3.5-4.4l-2.9-1.7c-1.8-1.1-3.1-2.1-3.8-3.1
			c-0.8-1-1.1-2.2-1.1-3.6c0-2,0.7-3.6,2.1-4.9c1.4-1.3,3.3-1.9,5.6-1.9c2.2,0,4.2,0.6,6,1.8v4.2c-1.9-1.8-3.9-2.7-6.1-2.7
			c-1.2,0-2.3,0.2-3,0.8c-0.8,0.6-1.1,1.2-1.2,2.1c-0.1,0.8,0.3,1.5,0.9,2.1c0.6,0.7,1.5,1.4,2.8,2.1l2.9,1.6
			c3.2,1.9,4.8,4.2,4.8,7.1C333,229.2,332.3,230.9,330.9,232.2z"/>
	</g>
</g>
<g id="Layer_69">
</g>
</svg>
